<?xml version="1.0" encoding="UTF-8" standalone="no"?>
<!DOCTYPE svg PUBLIC "-//W3C//DTD SVG 1.1//EN" "http://www.w3.org/Graphics/SVG/1.1/DTD/svg11.dtd">
<svg width="100%" height="100%" viewBox="0 0 83 83" version="1.1" xmlns="http://www.w3.org/2000/svg" xmlns:xlink="http://www.w3.org/1999/xlink" xml:space="preserve" xmlns:serif="http://www.serif.com/" style="fill-rule:evenodd;clip-rule:evenodd;stroke-linejoin:round;stroke-miterlimit:1.41421;">
    <g transform="matrix(1,0,0,1,-501.5,-7.10543e-15)">
        <g id="boundaries">
        </g>
        <g transform="matrix(1.21897,0.486989,-0.486989,1.21897,438.348,311.034)">
            <g id="Layer1">
            </g>
        </g>
        <g transform="matrix(-1.21897,0.486989,0.486989,1.21897,1148.47,309.385)">
            <g id="Layer11" serif:id="Layer1">
            </g>
        </g>
        <g transform="matrix(1.29223,-0.120665,0.122041,1.30697,503.582,394.05)">
            <g id="Layer12" serif:id="Layer1">
            </g>
        </g>
        <g transform="matrix(-1.29223,-0.120665,-0.122041,1.30697,1282.05,392.402)">
            <g id="Layer13" serif:id="Layer1">
            </g>
        </g>
        <g transform="matrix(1.21897,0.486989,-0.486989,1.21897,237.825,309.301)">
            <g id="Layer14" serif:id="Layer1">
            </g>
        </g>
        <g transform="matrix(-1.21897,0.486989,0.486989,1.21897,947.946,307.652)">
            <g id="Layer15" serif:id="Layer1">
            </g>
        </g>
        <g transform="matrix(1.29223,-0.120665,0.122041,1.30697,303.059,392.317)">
            <g id="Layer16" serif:id="Layer1">
            </g>
        </g>
        <g transform="matrix(-1.29223,-0.120665,-0.122041,1.30697,1081.52,390.669)">
            <g id="Layer17" serif:id="Layer1">
            </g>
        </g>
        <g id="masterpiece" transform="matrix(1,0,0,1,142.233,-0.972443)">
            <rect x="359.267" y="0.972" width="82.547" height="82.547" style="fill:none;"/>
            <clipPath id="_clip1">
                <rect x="359.267" y="0.972" width="82.547" height="82.547"/>
            </clipPath>
            <g clip-path="url(#_clip1)">
                <g transform="matrix(1.04805,0,0,1,-169.557,0.972443)">
                    <path d="M580.424,70.074C580.256,67.452 579.107,60.153 574.278,52.124C571.395,47.329 578.149,47.728 572.352,34.322C571.957,33.409 570.584,32.954 570.78,31.778C571.482,27.563 571.839,21.127 568.686,14.386C565.884,8.396 553.211,2.756 546.212,1.305C544.086,0.864 542.484,0.81 541.84,1.249C541.311,1.609 529.298,3.357 522.796,15.507C521.53,17.872 517.903,21.813 516.987,24.825C512.598,39.267 514.702,49.691 515.293,51.306C515.293,51.306 507.313,58.452 511.892,62.627C514.643,65.135 509.22,71.437 509.087,75.48C508.912,80.788 507.654,82.547 507.654,82.547L580.244,82.547C579.945,78.526 580.681,74.092 580.424,70.074Z" style="fill:rgb(89,57,42);"/>
                </g>
                <g transform="matrix(1.04805,0,0,1,-169.557,0.972443)">
                    <path d="M519.22,56.468C519.22,56.468 529.875,63.777 545.359,61.292C545.359,61.292 547.229,57.338 549.766,56.468C549.766,56.468 549.766,60.662 552.043,62.607C554.321,64.553 565.295,70.985 565.295,70.985C565.295,70.985 561.154,76.833 562.034,82.547C562.914,88.261 560.895,88.002 560.895,88.002L507.654,83.633L509.513,74.221C509.513,74.221 519.535,69.885 516.015,68.642L512.722,64.127C512.722,64.127 516.886,58.321 519.22,56.468Z" style="fill:rgb(0,75,69);"/>
                </g>
                <g transform="matrix(1.04805,0,0,1,-169.557,0.972443)">
                    <path d="M509.124,62.54L512.016,61.921C511.878,61.963 511.216,61.143 510.903,59.922C510.531,58.472 510.512,56.577 510.493,56.613C510.016,57.512 509.052,58.141 508.139,59.734C507.379,61.059 506.907,62.54 506.907,62.54L509.124,62.54Z" style="fill:rgb(254,199,111);"/>
                </g>
                <g transform="matrix(1.04805,0,0,1,-169.557,0.972443)">
                    <path d="M564.884,71.007C562.906,74.964 561.644,79.543 561.913,83.993" style="fill:none;stroke:black;stroke-width:0.98px;stroke-linecap:round;stroke-miterlimit:1.5;"/>
                </g>
                <g transform="matrix(1.04805,0,0,1,-169.557,0.972443)">
                    <path d="M509.674,74.233C508.958,77.057 508.031,80.115 507.743,83.051" style="fill:none;stroke:black;stroke-width:0.98px;stroke-linecap:round;stroke-miterlimit:1.5;"/>
                </g>
                <g transform="matrix(1.04805,0,0,1,-169.557,0.972443)">
                    <path d="M512.722,63.476C512.722,63.476 512.164,67.19 518.5,69.557C518.5,69.557 519.661,71.222 521.027,72.236C522.393,73.249 530.434,73.539 530.434,73.539C530.434,73.539 544.672,73.995 548.979,67.576C553.286,61.157 552.829,61.861 552.829,61.861C552.829,61.861 557.769,62.441 559.689,59.542L561.402,61.213C561.402,61.213 561.154,64.429 564.425,66.002C564.425,66.002 565.709,68.363 565.295,69.357C564.881,70.351 561.151,76.976 552.829,81.014C544.506,85.052 533.905,85.838 529.515,81.014C525.126,76.19 518.169,77.684 518.169,77.684L513.862,75.858C513.862,75.858 504.586,73.498 506.946,62.524L511.957,62.027L512.722,63.476Z" style="fill:rgb(129,27,32);"/>
                </g>
                <g transform="matrix(1.04805,0,0,1,-169.557,0.972443)">
                    <path d="M519.011,70.985C519.011,70.985 516.206,72.537 515.344,76.734C515.344,76.734 516.453,76.765 515.034,79.007C513.616,81.25 516.939,84.383 516.939,84.383C516.939,84.383 520.224,84.13 521.196,81.714C522.169,79.298 522.316,79.459 522.316,79.459C522.316,79.459 523.827,82.532 525.024,82.23C526.221,81.929 529.272,80.563 529.272,80.563L530.434,77.583L529.747,74.156L528.765,72.962L525.375,71.728L522.316,71.728L519.011,70.985Z" style="fill:rgb(241,209,194);"/>
                </g>
                <g transform="matrix(1.04805,0,0,1,-169.557,0.972443)">
                    <path d="M552.23,61.708C552.23,61.708 557.771,52.71 564.884,58.628C570.847,63.59 564.316,72.046 564.884,71.62C564.884,71.62 565.842,68.632 563.38,65.401C560.919,62.17 559.689,59.374 559.689,59.374C559.689,59.374 556.839,63.359 552.23,61.708Z" style="fill:rgb(254,198,111);"/>
                </g>
                <g transform="matrix(1.04805,0,0,1,-169.557,0.972443)">
                    <path d="M551.378,11.898C551.378,11.898 539.882,-0.142 524.898,13.938C524.898,13.938 523.209,19.57 523.655,22.926C524.1,26.281 521.623,32.363 522.796,34.932C523.969,37.501 523.471,39.003 528.661,43.036C528.661,43.036 530.683,46.073 528.073,49.56C525.463,53.046 519.722,56.454 519.722,56.454C519.722,56.454 527.314,61.015 534.738,61.356C542.162,61.697 545.544,61.461 545.544,61.461C545.544,61.461 547.768,56.035 549.906,56.297C549.906,56.297 551.918,50.739 551.378,48.537C550.839,46.335 551.652,42.56 552.569,40.096C553.487,37.632 553.434,31.349 553.434,31.764C553.434,32.18 554.022,27.094 554.022,27.094L551.964,20.382L551.378,11.898Z" style="fill:rgb(241,209,194);"/>
                </g>
                <g transform="matrix(1.04805,0,0,1,-169.557,0.972443)">
                    <path d="M551.378,11.925C544.461,5.399 530.542,5.992 525.094,14.224C522.835,17.638 523.803,21.573 523.743,25.369C523.698,28.204 522.589,30.814 522.83,33.705C522.953,35.181 523.195,36.704 523.887,38.031C526.243,42.549 532.025,44.525 536.698,45.3C540.401,45.915 543.879,45.94 547.528,45.01" style="fill:none;stroke:black;stroke-width:0.98px;stroke-linecap:round;stroke-miterlimit:1.5;"/>
                </g>
                <g transform="matrix(1.04805,0,0,1,-169.557,0.972443)">
                    <path d="M551.599,11.898C551.775,14.834 551.423,17.812 551.791,20.736C552.086,23.076 553.575,24.979 553.928,27.291C554.346,30.019 553.253,32.487 552.947,35.145C552.807,36.359 553.4,37.447 553.226,38.69C552.854,41.357 551.163,43.607 550.737,46.234C550.437,48.082 551.531,49.727 551.192,51.586C550.842,53.507 549.963,55.28 549.908,57.259C549.855,59.183 551.097,61.223 552.35,62.627" style="fill:none;stroke:black;stroke-width:0.98px;stroke-linecap:round;stroke-miterlimit:1.5;"/>
                </g>
                <g transform="matrix(1.04805,0,0,1,-169.557,0.972443)">
                    <path d="M528.942,43.036C529.073,44.44 529.349,46.34 528.874,47.689C528.299,49.322 526.947,50.534 525.742,51.71C521.788,55.568 515.051,58.658 512.912,64.127" style="fill:none;stroke:black;stroke-width:0.98px;stroke-linecap:round;stroke-miterlimit:1.5;"/>
                </g>
                <g transform="matrix(1.04805,0,0,1,-169.557,0.972443)">
                    <path d="M512.912,64.127C508.714,57.781 511.164,56.366 513.293,53.952C514.188,52.937 515.429,51.877 515.205,50.418C514.697,47.116 514.071,44.102 514.171,40.711C514.341,34.938 515.492,28.734 517.88,23.45C518.957,21.068 520.449,18.939 521.841,16.744C523.289,14.459 524.393,11.972 526.19,9.921C530.074,5.49 536.253,1.877 541.806,1.507C547.6,1.122 554.653,3.687 560.957,7.606C564.877,10.044 568.653,13.142 570.267,17.635C571.302,20.515 571.499,24.152 571.246,27.208C571.145,28.429 570.608,29.763 570.682,30.987C570.76,32.295 571.616,33.606 572.197,34.737C573.178,36.646 574.127,38.539 574.52,40.669C574.865,42.541 574.819,44.446 574.452,46.31C574.193,47.627 573.565,48.919 573.78,50.282C574.179,52.811 576.884,57.313 577.975,59.542C580.683,65.075 580.6,74.339 580.244,82.547" style="fill:none;stroke:black;stroke-width:0.98px;stroke-linecap:round;stroke-miterlimit:1.5;"/>
                </g>
                <g transform="matrix(1.04805,0,0,1,-169.557,0.972443)">
                    <path d="M519.895,56.532C525.971,60.068 532.828,61.689 539.847,61.543C541.272,61.513 542.697,61.451 544.117,61.338C544.467,61.311 545.301,61.393 545.611,61.2C546.276,60.786 546.603,59.486 546.935,58.835C547.631,57.473 548.658,56.405 550.149,55.961" style="fill:none;stroke:black;stroke-width:0.98px;stroke-linecap:round;stroke-miterlimit:1.5;"/>
                </g>
                <g transform="matrix(1.04805,0,0,1,-169.557,0.972443)">
                    <path d="M552.829,61.213C550.766,67.053 546.182,71.03 540.112,72.292C537.83,72.767 535.502,73.025 533.181,73.223C532.302,73.299 531.421,73.341 530.543,73.422C530.503,73.426 529.762,73.484 529.761,73.503C529.759,74.657 530.213,75.726 530.335,76.858C530.506,78.448 529.88,79.902 528.766,81.014" style="fill:none;stroke:black;stroke-width:0.98px;stroke-linecap:round;stroke-miterlimit:1.5;"/>
                </g>
                <g transform="matrix(1.04805,0,0,1,-169.557,0.972443)">
                    <path d="M552.23,61.331C554.006,62.051 556.138,62.12 557.885,61.27C558.492,60.974 559.034,60.562 559.483,60.059C559.634,59.889 559.778,59.714 559.913,59.532C559.978,59.446 560.047,59.18 560.103,59.272C560.965,60.681 561.207,62.393 562.111,63.786C562.879,64.968 564.279,65.652 564.732,67.039C565.048,68.007 564.986,69.096 564.884,70.096C564.848,70.444 564.791,70.789 564.728,71.133C564.699,71.292 564.492,71.694 564.629,71.608C565.362,71.154 565.867,69.633 566.153,68.885C567.262,65.99 567.824,61.947 565.768,59.333C562.119,54.694 555.092,56.789 552.622,61.5" style="fill:none;stroke:black;stroke-width:0.98px;stroke-linecap:round;stroke-miterlimit:1.5;"/>
                </g>
                <g transform="matrix(1.04805,0,0,1,-169.557,0.972443)">
                    <path d="M510.69,56.468C509.311,57.727 508.232,59.138 507.456,60.834C507.404,60.949 506.841,62.283 506.914,62.313C508.222,62.845 510.194,62.565 511.512,62.186" style="fill:none;stroke:black;stroke-width:0.98px;stroke-linecap:round;stroke-miterlimit:1.5;"/>
                </g>
                <g transform="matrix(1.04805,0,0,1,-169.557,0.972443)">
                    <path d="M512.761,64.469C513.551,66.188 514.552,67.603 516.188,68.603C517.068,69.14 518.452,69.452 519.22,70.126C519.232,70.136 518.573,70.863 518.516,70.925C517.835,71.662 517.052,72.331 516.473,73.158C516.029,73.794 515.784,74.562 515.752,75.335C515.74,75.599 515.755,75.862 515.777,76.124C515.788,76.251 515.95,76.496 515.824,76.503C514.599,76.565 513.292,75.926 512.218,75.412C508.062,73.426 504.739,67.3 506.907,62.607" style="fill:none;stroke:black;stroke-width:0.98px;stroke-linecap:round;stroke-miterlimit:1.5;"/>
                </g>
                <g transform="matrix(1.04805,0,0,1,-169.557,0.972443)">
                    <path d="M519.69,70.783C522.361,71.712 524.577,72.867 526.844,74.535C527.7,75.165 528.736,75.797 529.347,76.69C530.692,78.655 527.342,82.134 525.478,82.155C523.65,82.175 523.025,80.298 521.918,79.287C520.81,78.275 519.465,77.948 518.052,77.598" style="fill:none;stroke:black;stroke-width:0.98px;stroke-linecap:round;stroke-miterlimit:1.5;"/>
                </g>
                <g transform="matrix(1.04805,0,0,1,-169.557,0.972443)">
                    <path d="M516.158,76.596C516.866,76.952 517.573,77.3 518.274,77.67" style="fill:none;stroke:black;stroke-width:0.98px;stroke-linecap:round;stroke-miterlimit:1.5;"/>
                </g>
                <g transform="matrix(1.04805,0,0,1,-169.557,0.972443)">
                    <path d="M516.174,76.531C515.608,77.681 514.2,80.113 514.549,81.451C515.123,83.656 518.341,84.256 519.984,82.948C520.902,82.218 521.291,80.93 521.699,79.875" style="fill:none;stroke:black;stroke-width:0.98px;stroke-linecap:round;stroke-miterlimit:1.5;"/>
                </g>
                <g transform="matrix(1.04805,0,0,1,-169.557,0.972443)">
                    <path d="M522.316,71.781C524.854,71.544 527.552,72.1 529.747,73.411" style="fill:none;stroke:black;stroke-width:0.98px;stroke-linecap:round;stroke-miterlimit:1.5;"/>
                </g>
                <g transform="matrix(1.04805,0,0,1,-169.557,0.972443)">
                    <path d="M531.029,60.733C533.635,58.873 536.31,57.467 539.546,57.264" style="fill:none;stroke:black;stroke-width:0.98px;stroke-linecap:round;stroke-miterlimit:1.5;"/>
                </g>
                <g transform="matrix(1.04805,0,0,1,-169.557,0.972443)">
                    <path d="M526.182,54.446C527.865,56.047 529.317,57.882 529.864,60.18" style="fill:none;stroke:black;stroke-width:0.98px;stroke-linecap:round;stroke-miterlimit:1.5;"/>
                </g>
                <g transform="matrix(1.04805,0,0,1,-169.557,0.972443)">
                    <path d="M530.824,32.77C531.228,32.547 532.035,31.81 532.473,31.78C533.053,31.742 533.536,32.169 534.092,32.205C534.938,32.259 535.166,31.729 536.013,31.766C536.469,31.787 537.483,32.068 537.938,32.092C538.174,32.104 538.72,31.859 538.645,32.082C538.511,32.479 537.542,32.938 537.198,33.134C535.072,34.353 533.371,34.048 531.247,33.066" style="fill:none;stroke:black;stroke-width:0.98px;stroke-linecap:round;stroke-miterlimit:1.5;"/>
                </g>
                <g transform="matrix(1.04805,0,0,1,-169.557,0.972443)">
                    <path d="M532.965,21.695C533.37,23.409 533.504,25.094 533.146,26.822C533.038,27.344 532.941,27.919 532.628,28.365C532.565,28.455 532.165,28.803 532.177,28.885C532.437,30.594 534.481,30.314 535.541,29.712" style="fill:none;stroke:black;stroke-width:0.98px;stroke-linecap:round;stroke-miterlimit:1.5;"/>
                </g>
                <g transform="matrix(1.04805,0,0,1,-169.557,0.972443)">
                    <path d="M540.438,21.927C543.15,20.025 545.664,19.911 548.374,22.078" style="fill:none;stroke:black;stroke-width:0.98px;stroke-linecap:round;stroke-miterlimit:1.5;"/>
                </g>
                <g transform="matrix(1.04805,0,0,1,-169.557,0.972443)">
                    <path d="M524.898,22.132C526.833,20.748 529.081,19.528 531.248,21.173" style="fill:none;stroke:black;stroke-width:0.98px;stroke-linecap:round;stroke-miterlimit:1.5;"/>
                </g>
                <g transform="matrix(1.04805,0,0,1,-169.557,0.972443)">
                    <path d="M525.815,14.34C533.907,12.008 542.114,11.566 550.071,14.699" style="fill:none;stroke:black;stroke-width:0.98px;stroke-linecap:round;stroke-miterlimit:1.5;"/>
                </g>
                <g transform="matrix(1.04805,0,0,1,-169.557,0.972443)">
                    <path d="M544.423,24.52C544.264,24.15 543.614,24.417 543.517,24.741C543.433,25.02 543.764,25.443 543.867,25.583C544.101,25.899 545.262,25.185 545.091,24.779C544.82,24.135 543.328,24.517 543.484,25.038C543.83,26.191 544.921,24.574 544.595,24.574" style="fill:none;stroke:black;stroke-width:0.98px;stroke-linecap:round;stroke-miterlimit:1.5;"/>
                </g>
                <g transform="matrix(1.04805,0,0,1,-169.557,0.972443)">
                    <path d="M528.533,23.857C528.48,23.998 528.182,24.793 528.295,24.898C528.585,25.168 529.353,25.317 529.627,24.86C529.85,24.488 528.647,23.666 528.284,24.391" style="fill:none;stroke:black;stroke-width:0.98px;stroke-linecap:round;stroke-miterlimit:1.5;"/>
                </g>
                <g transform="matrix(1.04805,0,0,1,-169.557,0.972443)">
                    <path d="M528.765,80.563C530.719,81.964 532.785,83.037 535.023,83.898" style="fill:none;stroke:black;stroke-width:0.98px;stroke-linecap:round;stroke-miterlimit:1.5;"/>
                </g>
                <g transform="matrix(1.04805,0,0,1,-169.557,0.972443)">
                    <path d="M564.867,69.753C560.658,78.143 551.388,83.005 542.203,83.715" style="fill:none;stroke:black;stroke-width:0.98px;stroke-linecap:round;stroke-miterlimit:1.5;"/>
                </g>
            </g>
        </g>
    </g>
</svg>
